<svg width="88" height="16" viewBox="0 0 88 16" fill="none" xmlns="http://www.w3.org/2000/svg">
<path d="M14.6316 6.11934C14.5456 5.86734 14.3183 5.68934 14.053 5.66867L10.2523 5.36667L8.60765 1.726C8.50031 1.48667 8.26231 1.33334 8.00031 1.33334C7.73831 1.33334 7.50031 1.48667 7.39298 1.72534L5.74831 5.36667L1.94764 5.66867C1.68698 5.68934 1.46231 5.86067 1.37364 6.10667C1.28498 6.35267 1.34764 6.628 1.53498 6.81067L4.34364 9.54867L3.35031 13.85C3.28898 14.116 3.39631 14.3927 3.62098 14.548C3.73565 14.6267 3.86764 14.6667 4.00031 14.6667C4.12898 14.6667 4.25831 14.6293 4.37031 14.5547L8.00031 12.1347L11.6303 14.5547C11.8623 14.7093 12.167 14.7033 12.3936 14.5387C12.619 14.374 12.7183 14.0853 12.6416 13.8173L11.4223 9.55067L14.4463 6.82934C14.6443 6.65067 14.717 6.372 14.6316 6.11934Z" fill="#FFBA08"/>
<path d="M32.6316 6.11934C32.5456 5.86734 32.3183 5.68934 32.053 5.66867L28.2523 5.36667L26.6076 1.726C26.5003 1.48667 26.2623 1.33334 26.0003 1.33334C25.7383 1.33334 25.5003 1.48667 25.393 1.72534L23.7483 5.36667L19.9476 5.66867C19.687 5.68934 19.4623 5.86067 19.3736 6.10667C19.285 6.35267 19.3476 6.628 19.535 6.81067L22.3436 9.54867L21.3503 13.85C21.289 14.116 21.3963 14.3927 21.621 14.548C21.7356 14.6267 21.8676 14.6667 22.0003 14.6667C22.129 14.6667 22.2583 14.6293 22.3703 14.5547L26.0003 12.1347L29.6303 14.5547C29.8623 14.7093 30.167 14.7033 30.3936 14.5387C30.619 14.374 30.7183 14.0853 30.6416 13.8173L29.4223 9.55067L32.4463 6.82934C32.6443 6.65067 32.717 6.372 32.6316 6.11934Z" fill="#FFBA08"/>
<path d="M50.6316 6.11934C50.5456 5.86734 50.3183 5.68934 50.053 5.66867L46.2523 5.36667L44.6076 1.726C44.5003 1.48667 44.2623 1.33334 44.0003 1.33334C43.7383 1.33334 43.5003 1.48667 43.393 1.72534L41.7483 5.36667L37.9476 5.66867C37.687 5.68934 37.4623 5.86067 37.3736 6.10667C37.285 6.35267 37.3476 6.628 37.535 6.81067L40.3436 9.54867L39.3503 13.85C39.289 14.116 39.3963 14.3927 39.621 14.548C39.7356 14.6267 39.8676 14.6667 40.0003 14.6667C40.129 14.6667 40.2583 14.6293 40.3703 14.5547L44.0003 12.1347L47.6303 14.5547C47.8623 14.7093 48.167 14.7033 48.3936 14.5387C48.619 14.374 48.7183 14.0853 48.6416 13.8173L47.4223 9.55067L50.4463 6.82934C50.6443 6.65067 50.717 6.372 50.6316 6.11934Z" fill="#FFBA08"/>
<path d="M68.6316 6.11934C68.5456 5.86734 68.3183 5.68934 68.053 5.66867L64.2523 5.36667L62.6076 1.726C62.5003 1.48667 62.2623 1.33334 62.0003 1.33334C61.7383 1.33334 61.5003 1.48667 61.393 1.72534L59.7483 5.36667L55.9476 5.66867C55.687 5.68934 55.4623 5.86067 55.3736 6.10667C55.285 6.35267 55.3476 6.628 55.535 6.81067L58.3436 9.54867L57.3503 13.85C57.289 14.116 57.3963 14.3927 57.621 14.548C57.7356 14.6267 57.8676 14.6667 58.0003 14.6667C58.129 14.6667 58.2583 14.6293 58.3703 14.5547L62.0003 12.1347L65.6303 14.5547C65.8623 14.7093 66.167 14.7033 66.3936 14.5387C66.619 14.374 66.7183 14.0853 66.6416 13.8173L65.4223 9.55067L68.4463 6.82934C68.6443 6.65067 68.717 6.372 68.6316 6.11934Z" fill="#FFBA08"/>
<path d="M86.6316 6.11934C86.5456 5.86734 86.3183 5.68934 86.053 5.66867L82.2523 5.36667L80.6076 1.726C80.5003 1.48667 80.2623 1.33334 80.0003 1.33334C79.7383 1.33334 79.5003 1.48667 79.393 1.72534L77.7483 5.36667L73.9476 5.66867C73.687 5.68934 73.4623 5.86067 73.3736 6.10667C73.285 6.35267 73.3476 6.628 73.535 6.81067L76.3436 9.54867L75.3503 13.85C75.289 14.116 75.3963 14.3927 75.621 14.548C75.7356 14.6267 75.8676 14.6667 76.0003 14.6667C76.129 14.6667 76.2583 14.6293 76.3703 14.5547L80.0003 12.1347L83.6303 14.5547C83.8623 14.7093 84.167 14.7033 84.3936 14.5387C84.619 14.374 84.7183 14.0853 84.6416 13.8173L83.4223 9.55067L86.4463 6.82934C86.6443 6.65067 86.717 6.372 86.6316 6.11934Z" fill="#FFBA08"/>
</svg>
